# xmcd
# 
# Track frame offsets:
#	183
#	15880
#	42268
#	54790
#	67890
#	82555
#	99515
#	111448
#	127875
#
# Disc length: 1891 seconds
#
# Revision: 1
# Processed by: cddbd v1.4PL0 Copyright (c) Steve Scherf et al.
# Submitted via: Audio-CD-Archiv 2.10.438
#
DISCID=59076109
DTITLE=Fats  Domino - Sleeping On The Job
DYEAR=1900
DGENRE=blues
TTITLE0=Sleeping On The Job
TTITLE1=After Hours - When I Lost My Baby
TTITLE2=Something About Your Baby
TTITLE3=Move With The Groove
TTITLE4=Any Old Time
TTITLE5=Shame On You
TTITLE6=I Just Can't Get It (New Orleans Off My Mind)
TTITLE7=The Girl I Llove
TTITLE8=Love Me
EXTD=
EXTT0=
EXTT1=
EXTT2=
EXTT3=
EXTT4=
EXTT5=
EXTT6=
EXTT7=
EXTT8=
PLAYORDER=
